<svg xmlns="http://www.w3.org/2000/svg" width="57.568" height="79.11" viewBox="0 0 57.568 79.11">
  <g id="Group_27" data-name="Group 27" transform="translate(-111.273 -660.752)">
    <g id="Group_26" data-name="Group 26">
      <g id="Group_12" data-name="Group 12">
        <path id="Path_61" data-name="Path 61" d="M152.9,726.717H129.067a.65.65,0,0,1-.65-.651v-15.66a21.6,21.6,0,1,1,25.137,0v15.66A.65.65,0,0,1,152.9,726.717Zm-23.187-1.3h22.537V710.069a.65.65,0,0,1,.279-.534,20.3,20.3,0,1,0-23.1,0,.651.651,0,0,1,.28.534Z" fill="#deb061"/>
      </g>
      <g id="Group_13" data-name="Group 13">
        <path id="Path_62" data-name="Path 62" d="M139.717,669.148a.65.65,0,0,1-.65-.65v-7.1a.65.65,0,0,1,1.3,0v7.1A.65.65,0,0,1,139.717,669.148Z" fill="#deb061"/>
      </g>
      <g id="Group_14" data-name="Group 14">
        <path id="Path_63" data-name="Path 63" d="M148.212,669.958a.653.653,0,0,1-.629-.819l1.841-6.852a.65.65,0,0,1,1.256.338l-1.841,6.852A.65.65,0,0,1,148.212,669.958Z" fill="#deb061"/>
      </g>
      <g id="Group_15" data-name="Group 15">
        <path id="Path_64" data-name="Path 64" d="M156.217,672.945a.65.65,0,0,1-.562-.974l3.545-6.152a.65.65,0,1,1,1.126.649l-3.545,6.151A.65.65,0,0,1,156.217,672.945Z" fill="#deb061"/>
      </g>
      <g id="Group_16" data-name="Group 16">
        <path id="Path_65" data-name="Path 65" d="M163.171,677.9a.65.65,0,0,1-.46-1.11l5.02-5.019a.65.65,0,0,1,.919.92l-5.02,5.019A.646.646,0,0,1,163.171,677.9Z" fill="#deb061"/>
      </g>
      <g id="Group_17" data-name="Group 17">
        <path id="Path_66" data-name="Path 66" d="M116.935,679.552a.647.647,0,0,1-.459-.192l-5.013-5.02a.65.65,0,0,1,.92-.918l5.012,5.02a.65.65,0,0,1-.46,1.11Z" fill="#deb061"/>
      </g>
      <g id="Group_18" data-name="Group 18">
        <path id="Path_67" data-name="Path 67" d="M123.525,674.11a.652.652,0,0,1-.564-.325l-3.55-6.143a.65.65,0,0,1,1.126-.651l3.55,6.144a.65.65,0,0,1-.562.975Z" fill="#deb061"/>
      </g>
      <g id="Group_19" data-name="Group 19">
        <path id="Path_68" data-name="Path 68" d="M131.3,670.566a.652.652,0,0,1-.628-.481l-1.84-6.852a.65.65,0,1,1,1.255-.337l1.841,6.851a.649.649,0,0,1-.628.819Z" fill="#deb061"/>
      </g>
      <g id="Group_20" data-name="Group 20">
        <path id="Path_69" data-name="Path 69" d="M127.312,703.683a.649.649,0,0,1-.562-.325l-1.189-2.049a.65.65,0,0,1,.157-.835l3.238-2.577a13,13,0,0,1-.448-1.691l-4.094-.615a.65.65,0,0,1-.553-.643v-2.361a.65.65,0,0,1,.554-.643l4.093-.613a12.835,12.835,0,0,1,.447-1.69l-3.237-2.576a.653.653,0,0,1-.158-.836l1.19-2.051a.651.651,0,0,1,.8-.279l3.849,1.516a12.425,12.425,0,0,1,1.237-1.234l-1.515-3.852a.651.651,0,0,1,.28-.8l2.049-1.181a.65.65,0,0,1,.833.158l2.576,3.234a12.248,12.248,0,0,1,1.683-.451l.614-4.095a.65.65,0,0,1,.643-.553h2.37a.648.648,0,0,1,.642.553l.617,4.095a12.447,12.447,0,0,1,1.69.452l2.568-3.234a.65.65,0,0,1,.834-.159l2.05,1.181a.653.653,0,0,1,.281.8l-1.518,3.852a12.422,12.422,0,0,1,1.237,1.234l3.858-1.516a.647.647,0,0,1,.8.281l1.181,2.051a.653.653,0,0,1-.159.834l-3.235,2.575a12.2,12.2,0,0,1,.45,1.691l4.089.613a.65.65,0,0,1,.553.643v2.361a.65.65,0,0,1-.553.643l-4.09.614a12.311,12.311,0,0,1-.45,1.692l3.236,2.577a.651.651,0,0,1,.159.833l-1.181,2.049a.644.644,0,0,1-.8.281l-4.294-1.689a.649.649,0,1,1,.475-1.209l3.773,1.484.622-1.08-3.165-2.52a.652.652,0,0,1-.2-.742,11.015,11.015,0,0,0,.623-2.342.649.649,0,0,1,.546-.549l4-.6v-1.242l-4-.6a.649.649,0,0,1-.547-.549,10.817,10.817,0,0,0-.622-2.34.652.652,0,0,1,.2-.744l3.165-2.518-.622-1.082L150.61,686.8a.647.647,0,0,1-.745-.2,11.309,11.309,0,0,0-1.716-1.715.652.652,0,0,1-.2-.743l1.483-3.766-1.079-.622-2.513,3.164a.647.647,0,0,1-.747.2,11.1,11.1,0,0,0-2.342-.627.65.65,0,0,1-.542-.546l-.6-4h-1.25l-.6,4a.651.651,0,0,1-.543.546,10.815,10.815,0,0,0-2.331.626.648.648,0,0,1-.749-.2l-2.521-3.165-1.079.622,1.481,3.766a.652.652,0,0,1-.2.743,11.163,11.163,0,0,0-1.715,1.714.647.647,0,0,1-.747.2l-3.765-1.482-.628,1.083,3.164,2.517a.652.652,0,0,1,.2.744,11.423,11.423,0,0,0-.623,2.348.649.649,0,0,1-.546.541l-4,.6v1.242l4,.6a.649.649,0,0,1,.545.541,11.63,11.63,0,0,0,.624,2.35.65.65,0,0,1-.2.742l-3.164,2.519.627,1.081,3.766-1.484a.65.65,0,1,1,.477,1.209l-4.286,1.689A.646.646,0,0,1,127.312,703.683Z" fill="#deb061"/>
      </g>
      <g id="Group_21" data-name="Group 21">
        <path id="Path_70" data-name="Path 70" d="M155.974,714.476H126a.651.651,0,0,1,0-1.3h29.976a.651.651,0,0,1,0,1.3Z" fill="#deb061"/>
      </g>
      <g id="Group_22" data-name="Group 22">
        <path id="Path_71" data-name="Path 71" d="M155.974,718.862H126a.651.651,0,0,1,0-1.3h29.976a.651.651,0,0,1,0,1.3Z" fill="#deb061"/>
      </g>
      <g id="Group_23" data-name="Group 23">
        <path id="Path_72" data-name="Path 72" d="M155.974,722.86H126a.65.65,0,1,1,0-1.3h29.976a.65.65,0,1,1,0,1.3Z" fill="#deb061"/>
      </g>
      <g id="Group_24" data-name="Group 24">
        <path id="Path_73" data-name="Path 73" d="M148.752,733.762H133.218a.65.65,0,0,1-.65-.651v-7.045a.65.65,0,0,1,.65-.65h15.534a.65.65,0,0,1,.65.65v7.045A.65.65,0,0,1,148.752,733.762Zm-14.884-1.3H148.1v-5.744H133.868Z" fill="#deb061"/>
      </g>
      <g id="Group_25" data-name="Group 25">
        <path id="Path_74" data-name="Path 74" d="M143.48,739.862h-4.987a.65.65,0,0,1-.65-.65v-6.1a.65.65,0,0,1,.65-.65h4.987a.65.65,0,0,1,.65.65v6.1A.65.65,0,0,1,143.48,739.862Zm-4.337-1.3h3.687v-4.8h-3.687Z" fill="#deb061"/>
      </g>
      <path id="Path_75" data-name="Path 75" d="M141.521,699.446a2.421,2.421,0,0,0,1.578-.825,2.6,2.6,0,0,0,.625-1.765,2.186,2.186,0,0,0-.438-1.433,3.393,3.393,0,0,0-1.765-.888Zm-.971-11.357a2.362,2.362,0,0,0-1.51.769,2.154,2.154,0,0,0-.547,1.468,2.124,2.124,0,0,0,.463,1.407,2.906,2.906,0,0,0,1.594.854Zm0,14.387V700.83a6.109,6.109,0,0,1-2-.547A3.562,3.562,0,0,1,137.217,699a4.618,4.618,0,0,1-.648-2.168l1.644-.312a4.125,4.125,0,0,0,.675,1.95,2.4,2.4,0,0,0,1.662.977v-5.154a8.754,8.754,0,0,1-2.074-.862,3.066,3.066,0,0,1-1.208-1.206,3.7,3.7,0,0,1-.421-1.764,3.606,3.606,0,0,1,1.24-2.844,4.3,4.3,0,0,1,2.463-.893v-.784h.971v.784a4.022,4.022,0,0,1,2.261.842,3.8,3.8,0,0,1,1.291,2.465l-1.687.262a2.758,2.758,0,0,0-.607-1.493,2.19,2.19,0,0,0-1.258-.693v4.734a16.1,16.1,0,0,1,1.637.489,4.14,4.14,0,0,1,1.249.828,3.335,3.335,0,0,1,.742,1.146,4.019,4.019,0,0,1,.253,1.443,3.946,3.946,0,0,1-1.079,2.844,4,4,0,0,1-2.8,1.224v1.662Z" fill="#deb061"/>
    </g>
  </g>
</svg>
