<svg xmlns="http://www.w3.org/2000/svg" width="60.353" height="79.11" viewBox="0 0 60.353 79.11">
  <g id="Group_93" data-name="Group 93" transform="translate(-629.879 -530.752)">
    <g id="Group_92" data-name="Group 92">
      <g id="Group_88" data-name="Group 88">
        <g id="Group_87" data-name="Group 87">
          <path id="Path_150" data-name="Path 150" d="M668.279,598.881H651.826a1.239,1.239,0,0,1-1.241-1.233,1.221,1.221,0,0,1,.191-.657,31.943,31.943,0,0,0,2.768-7.285,15.9,15.9,0,0,0,.2-6.425,21.731,21.731,0,0,1-15.173-18.259,13.087,13.087,0,0,1-6.046-4.373,12.77,12.77,0,0,1-2.648-7.815V538.619a1.234,1.234,0,0,1,1.234-1.231h7.332v-5.4a1.236,1.236,0,0,1,1.235-1.234h40.755a1.239,1.239,0,0,1,1.241,1.234v5.4H689a1.232,1.232,0,0,1,1.231,1.231v14.215a12.748,12.748,0,0,1-2.655,7.815,13.043,13.043,0,0,1-6.039,4.373,21.73,21.73,0,0,1-15.162,18.258,16.2,16.2,0,0,0,.187,6.566,29.8,29.8,0,0,0,2.809,7.236,1.236,1.236,0,0,1-.525,1.66A1.31,1.31,0,0,1,668.279,598.881Zm-37.135-60.192.036,14.145a11.473,11.473,0,0,0,2.38,7.025,11.762,11.762,0,0,0,5.809,4.057.651.651,0,0,1,.455.562,20.425,20.425,0,0,0,14.662,17.667.646.646,0,0,1,.457.49,17.04,17.04,0,0,1-.131,7.357,33.283,33.283,0,0,1-2.909,7.644l16.263-.055a30.925,30.925,0,0,1-2.872-7.452,17.346,17.346,0,0,1-.115-7.493.648.648,0,0,1,.456-.491,20.425,20.425,0,0,0,14.652-17.667.651.651,0,0,1,.455-.562,11.723,11.723,0,0,0,5.8-4.057,11.465,11.465,0,0,0,2.387-7.025V538.651l-7.907.038a.651.651,0,0,1-.65-.651v-6.029l-40.673.044.044,5.985a.651.651,0,0,1-.65.651Zm49.881,21.53a.659.659,0,0,1-.337-.095.649.649,0,0,1-.313-.556V542.646a.65.65,0,0,1,.65-.651h4.289a.65.65,0,0,1,.651.651v9.849a8.522,8.522,0,0,1-1.5,4.857,8.677,8.677,0,0,1-3.135,2.793A.666.666,0,0,1,681.025,560.219Zm.651-16.923v15.1a7.4,7.4,0,0,0,1.713-1.781,7.224,7.224,0,0,0,1.275-4.121v-9.2ZM639.1,560.219a.664.664,0,0,1-.3-.073,8.622,8.622,0,0,1-3.146-2.8,8.521,8.521,0,0,1-1.5-4.853v-9.849a.65.65,0,0,1,.651-.651h4.3a.65.65,0,0,1,.65.651v16.922a.653.653,0,0,1-.312.556A.662.662,0,0,1,639.1,560.219ZM635.447,543.3v9.2a7.221,7.221,0,0,0,1.277,4.118,7.3,7.3,0,0,0,1.721,1.788V543.3Z" fill="#deb061"/>
        </g>
      </g>
      <g id="Group_89" data-name="Group 89">
        <path id="Path_151" data-name="Path 151" d="M676.425,606.744H643.686a.65.65,0,0,1-.65-.65V598.23a.65.65,0,0,1,.65-.65h32.739a.65.65,0,0,1,.65.65v7.864A.65.65,0,0,1,676.425,606.744Zm-32.088-1.3h31.437v-6.562H644.337Z" fill="#deb061"/>
      </g>
      <g id="Group_90" data-name="Group 90">
        <path id="Path_152" data-name="Path 152" d="M672.756,609.862h-25.4a.65.65,0,0,1-.65-.65v-3.118a.65.65,0,0,1,.65-.651h25.4a.65.65,0,0,1,.65.651v3.118A.65.65,0,0,1,672.756,609.862Zm-24.75-1.3h24.1v-1.817h-24.1Z" fill="#deb061"/>
      </g>
      <g id="Group_91" data-name="Group 91">
        <path id="Path_153" data-name="Path 153" d="M665.85,567.888a1.221,1.221,0,0,1-.785-.287l-5.005-3.65-5.081,3.7a1.257,1.257,0,0,1-1.725-.284,1.2,1.2,0,0,1-.162-1.1l1.943-5.968-5.085-3.673a1.239,1.239,0,0,1-.447-1.386,1.214,1.214,0,0,1,1.168-.851l6.281.016,1.932-5.974a1.2,1.2,0,0,1,1.165-.853,1.238,1.238,0,0,1,1.177.847l1.933,5.98,6.274-.016a1.228,1.228,0,0,1,1.172.856,1.205,1.205,0,0,1-.45,1.372l-5.086,3.682,1.955,5.973a1.2,1.2,0,0,1-.164,1.093A1.248,1.248,0,0,1,665.85,567.888Zm-5.79-5.392a.65.65,0,0,1,.383.125l5.329,3.888-2.087-6.255a.65.65,0,0,1,.238-.729l5.3-3.834-6.532.018h0a.649.649,0,0,1-.618-.45l-2.012-6.226-2.013,6.226a.613.613,0,0,1-.62.45l-6.548-.018,5.306,3.833a.653.653,0,0,1,.237.729l-2.032,6.243,5.292-3.875A.651.651,0,0,1,660.06,562.5Z" fill="#deb061"/>
      </g>
    </g>
  </g>
</svg>
