<svg xmlns="http://www.w3.org/2000/svg" width="79.11" height="71.889" viewBox="0 0 79.11 71.889">
  <g id="Group_109" data-name="Group 109" transform="translate(-620.502 -274.363)">
    <g id="Group_108" data-name="Group 108">
      <g id="Group_94" data-name="Group 94">
        <path id="Path_154" data-name="Path 154" d="M625.58,322.477a.65.65,0,0,1-.628-.482l-4.428-16.546a.651.651,0,0,1,.46-.8l6.8-1.82a.65.65,0,0,1,.8.46l4.428,16.546a.651.651,0,0,1-.46.8l-6.8,1.82A.64.64,0,0,1,625.58,322.477Zm-3.632-16.736,4.092,15.29,5.544-1.484-4.092-15.29Z" fill="#deb061"/>
      </g>
      <g id="Group_95" data-name="Group 95">
        <path id="Path_155" data-name="Path 155" d="M666.646,319.91a.118.118,0,0,1-.019,0h-.017l-34.686-.878a.651.651,0,0,1-.612-.481l-3.559-13.295a.652.652,0,0,1,.289-.723l29.6-18.1a.649.649,0,0,1,.985.618,52.079,52.079,0,0,0,8.455,31.722.65.65,0,0,1-.432,1.137Zm-34.2-2.166,32.926.834a54.182,54.182,0,0,1-8.14-30.371l-28.093,17.181Z" fill="#deb061"/>
      </g>
      <g id="Group_96" data-name="Group 96">
        <path id="Path_156" data-name="Path 156" d="M676.406,326.667h0c-6.281,0-13.639-9.776-17.115-22.741-3.864-14.4-1.708-27.07,4.907-28.845a5.993,5.993,0,0,1,1.548-.2c6.291,0,13.648,9.775,17.113,22.738,3.865,14.4,1.713,27.07-4.9,28.846A6.008,6.008,0,0,1,676.406,326.667Zm-10.66-50.487a4.667,4.667,0,0,0-1.211.157c-5.714,1.533-7.541,14.014-3.988,27.252,3.273,12.212,10.24,21.778,15.859,21.778h0a4.681,4.681,0,0,0,1.219-.159c5.709-1.534,7.531-14.015,3.978-27.253C678.34,285.744,671.374,276.18,665.746,276.18Z" fill="#deb061"/>
      </g>
      <g id="Group_97" data-name="Group 97">
        <path id="Path_157" data-name="Path 157" d="M680.83,324.441a.634.634,0,0,1-.225-.041c-5.741-2.117-11.615-11.063-14.617-22.263s-2.386-21.888,1.531-26.6a.65.65,0,0,1,.724-.195c5.738,2.114,11.612,11.065,14.616,22.276s2.39,21.9-1.53,26.59A.652.652,0,0,1,680.83,324.441Zm-12.6-47.7c-3.338,4.538-3.758,14.715-.985,25.064s8.223,18.95,13.376,21.205c3.342-4.52,3.761-14.692.983-25.052S673.38,278.99,668.229,276.737Z" fill="#deb061"/>
      </g>
      <g id="Group_98" data-name="Group 98">
        <path id="Path_158" data-name="Path 158" d="M667.485,305.573a.648.648,0,0,1-.619-.454c-.349-1.1-.637-2.075-.878-2.983-.264-.967-.5-1.96-.724-3.031a.649.649,0,0,1,.366-.723A15.586,15.586,0,0,1,671.81,297c2.612,0,4.4.859,4.791,2.3.3,1.1-.285,2.33-1.641,3.449a13.3,13.3,0,0,1-4.9,2.37,15.924,15.924,0,0,1-2.514.457Zm-.839-6.216c.186.85.382,1.653.6,2.441.2.749.43,1.543.7,2.418a15.559,15.559,0,0,0,1.783-.36,11.994,11.994,0,0,0,4.406-2.116c.926-.763,1.368-1.532,1.212-2.107-.215-.8-1.636-1.337-3.535-1.337a14.413,14.413,0,0,0-5.164,1.061Z" fill="#deb061"/>
      </g>
      <g id="Group_99" data-name="Group 99">
        <path id="Path_159" data-name="Path 159" d="M648.566,341.958a.649.649,0,0,1-.569-.337L635.411,318.8a.651.651,0,0,1,.019-.658.678.678,0,0,1,.583-.3l7.72.388a.649.649,0,0,1,.536.333l11.023,19.807a.658.658,0,0,1,.047.528.649.649,0,0,1-.361.386l-6.157,2.629A.655.655,0,0,1,648.566,341.958Zm-11.453-22.767,11.739,21.289,4.953-2.116-10.5-18.862Z" fill="#deb061"/>
      </g>
      <g id="Group_100" data-name="Group 100">
        <path id="Path_160" data-name="Path 160" d="M635.7,310.9a.65.65,0,0,1-.168-1.278l20.361-5.462a.65.65,0,1,1,.336,1.256l-20.361,5.462A.693.693,0,0,1,635.7,310.9Z" fill="#deb061"/>
      </g>
      <g id="Group_101" data-name="Group 101">
        <path id="Path_161" data-name="Path 161" d="M690.6,294.663a.65.65,0,0,1-.168-1.278l6.729-1.8a.65.65,0,0,1,.336,1.256l-6.729,1.8A.692.692,0,0,1,690.6,294.663Z" fill="#deb061"/>
      </g>
      <g id="Group_102" data-name="Group 102">
        <path id="Path_162" data-name="Path 162" d="M698.962,302.925h-6.955a.65.65,0,1,1,0-1.3h6.955a.65.65,0,0,1,0,1.3Z" fill="#deb061"/>
      </g>
      <g id="Group_103" data-name="Group 103">
        <path id="Path_163" data-name="Path 163" d="M697.929,313.069a.685.685,0,0,1-.168-.022l-6.719-1.8a.65.65,0,1,1,.336-1.256l6.719,1.8a.65.65,0,0,1-.168,1.278Z" fill="#deb061"/>
      </g>
      <g id="Group_104" data-name="Group 104">
        <path id="Path_164" data-name="Path 164" d="M681.8,280.581a.65.65,0,0,1-.46-1.11l4.918-4.918a.651.651,0,1,1,.92.92l-4.918,4.918A.649.649,0,0,1,681.8,280.581Z" fill="#deb061"/>
      </g>
      <g id="Group_105" data-name="Group 105">
        <path id="Path_165" data-name="Path 165" d="M687.131,287.045a.65.65,0,0,1-.325-1.214l6.032-3.476a.65.65,0,1,1,.648,1.126l-6.032,3.477A.645.645,0,0,1,687.131,287.045Z" fill="#deb061"/>
      </g>
      <g id="Group_106" data-name="Group 106">
        <path id="Path_166" data-name="Path 166" d="M679.962,342.817h-55.7a.65.65,0,1,1,0-1.3h55.7a.65.65,0,1,1,0,1.3Z" fill="#deb061"/>
      </g>
      <g id="Group_107" data-name="Group 107">
        <path id="Path_167" data-name="Path 167" d="M692.142,346.252H636.45a.651.651,0,0,1,0-1.3h55.692a.651.651,0,0,1,0,1.3Z" fill="#deb061"/>
      </g>
    </g>
  </g>
</svg>
