<svg xmlns="http://www.w3.org/2000/svg" width="73.435" height="79.11" viewBox="0 0 73.435 79.11">
  <g id="Group_11" data-name="Group 11" transform="translate(-363.338 -140.752)">
    <g id="Group_10" data-name="Group 10">
      <g id="Group_9" data-name="Group 9">
        <g id="Group_7" data-name="Group 7">
          <path id="Path_33" data-name="Path 33" d="M433.939,206.649c2.006,3.265,2.631,6.072,1.511,8.011-3.11,5.36-18.283,2.525-35.4-6.168,2.066-1.044,4.171-2.174,6.276-3.392a120.07,120.07,0,0,0,15.915-10.9l.145.175a65.361,65.361,0,0,1,9.239,9.044,1.95,1.95,0,0,0-.779,1.569,1.983,1.983,0,0,0,1.988,1.988A2.026,2.026,0,0,0,433.939,206.649Z" fill="none" stroke="#deb061" stroke-linecap="round" stroke-linejoin="round" stroke-width="1.3"/>
          <path id="Path_34" data-name="Path 34" d="M432.838,203.016a1.981,1.981,0,0,1,1.1,3.633,2.026,2.026,0,0,1-1.1.332,1.983,1.983,0,0,1-1.988-1.988,1.95,1.95,0,0,1,.779-1.569A1.988,1.988,0,0,1,432.838,203.016Z" fill="none" stroke="#deb061" stroke-linecap="round" stroke-linejoin="round" stroke-width="1.3"/>
          <path id="Path_35" data-name="Path 35" d="M431.532,171.117a2.411,2.411,0,0,1-.019.254,1.982,1.982,0,0,1-3.947-.254v-.02a1.983,1.983,0,0,1,3.966.02Z" fill="none" stroke="#deb061" stroke-linecap="round" stroke-linejoin="round" stroke-width="1.3"/>
          <path id="Path_36" data-name="Path 36" d="M415.158,163.1a14.438,14.438,0,0,1-6.246,11.89v2.6h-16.44v-2.6a14.46,14.46,0,1,1,22.686-11.89Zm-13.34-.731,1.47-.194a2.5,2.5,0,0,0-.7-1.384,2.539,2.539,0,0,0-1.473-.624V159.6h-.838v.565a2.368,2.368,0,0,0-1.568.74,2.255,2.255,0,0,0-.6,1.589,2.469,2.469,0,0,0,.519,1.588,3.152,3.152,0,0,0,1.644.975v2.408a1.6,1.6,0,0,1-.552-.479,2.025,2.025,0,0,1-.354-.8l-1.5.186a3.04,3.04,0,0,0,.8,1.734,2.659,2.659,0,0,0,1.606.742V169.9h.838v-1.071a2.811,2.811,0,0,0,1.765-.887,2.493,2.493,0,0,0,.645-1.755,2.362,2.362,0,0,0-.507-1.53,3.85,3.85,0,0,0-1.9-.964V161.44A1.162,1.162,0,0,1,401.818,162.365Z" fill="none" stroke="#deb061" stroke-linecap="round" stroke-linejoin="round" stroke-width="1.3"/>
          <path id="Path_37" data-name="Path 37" d="M408.912,183.367v2.66h-16.44v-2.66Z" fill="none" stroke="#deb061" stroke-linecap="round" stroke-linejoin="round" stroke-width="1.3"/>
          <rect id="Rectangle_18" data-name="Rectangle 18" width="16.44" height="2.768" transform="translate(392.472 180.6)" stroke-width="1.3" stroke="#deb061" stroke-linecap="round" stroke-linejoin="round" fill="none"/>
          <rect id="Rectangle_19" data-name="Rectangle 19" width="16.44" height="3.012" transform="translate(392.472 177.588)" stroke-width="1.3" stroke="#deb061" stroke-linecap="round" stroke-linejoin="round" fill="none"/>
          <path id="Path_38" data-name="Path 38" d="M406.056,186.027v4.854h-10.72v-4.854Z" fill="none" stroke="#deb061" stroke-linecap="round" stroke-linejoin="round" stroke-width="1.3"/>
          <path id="Path_39" data-name="Path 39" d="M403.288,162.171l-1.47.194a1.162,1.162,0,0,0-.7-.925v2.251a3.85,3.85,0,0,1,1.9.964,2.362,2.362,0,0,1,.507,1.53,2.493,2.493,0,0,1-.645,1.755,2.811,2.811,0,0,1-1.765.887V169.9h-.838v-1.051a2.659,2.659,0,0,1-1.606-.742,3.04,3.04,0,0,1-.8-1.734l1.5-.186a2.025,2.025,0,0,0,.354.8,1.6,1.6,0,0,0,.552.479v-2.408a3.152,3.152,0,0,1-1.644-.975,2.469,2.469,0,0,1-.519-1.588,2.255,2.255,0,0,1,.6-1.589,2.368,2.368,0,0,1,1.568-.74V159.6h.838v.565a2.539,2.539,0,0,1,1.473.624A2.5,2.5,0,0,1,403.288,162.171ZM402.1,166.39a1.012,1.012,0,0,0-.224-.654,1.5,1.5,0,0,0-.762-.437v2.261a1.308,1.308,0,0,0,.714-.409A1.175,1.175,0,0,0,402.1,166.39Zm-1.824-2.973v-2a1.083,1.083,0,0,0-.525.389,1.021,1.021,0,0,0-.2.614.935.935,0,0,0,.174.565A1.3,1.3,0,0,0,400.276,163.417Z" fill="none" stroke="#deb061" stroke-width="1"/>
          <rect id="Rectangle_20" data-name="Rectangle 20" width="3.45" height="4.22" transform="translate(398.972 190.881)" stroke-width="1.3" stroke="#deb061" stroke-linecap="round" stroke-linejoin="round" fill="none"/>
          <path id="Path_40" data-name="Path 40" d="M401.876,165.736a1.012,1.012,0,0,1,.224.654,1.175,1.175,0,0,1-.272.761,1.308,1.308,0,0,1-.714.409V165.3A1.5,1.5,0,0,1,401.876,165.736Z" fill="none" stroke="#deb061" stroke-linecap="round" stroke-linejoin="round" stroke-width="1.3"/>
          <path id="Path_41" data-name="Path 41" d="M400.276,161.42v2a1.3,1.3,0,0,1-.546-.429.935.935,0,0,1-.174-.565,1.021,1.021,0,0,1,.2-.614A1.083,1.083,0,0,1,400.276,161.42Z" fill="none" stroke="#deb061" stroke-linecap="round" stroke-linejoin="round" stroke-width="1.3"/>
          <path id="Path_42" data-name="Path 42" d="M392.472,177.588v6.6h-.1a119.57,119.57,0,0,0-14.471,10.04l-.009.009c-10.119-8.275-15.633-16.275-13.227-20.437,1.483-2.582,5.769-3.256,11.726-2.3a2.01,2.01,0,0,0-.031.36,1.989,1.989,0,0,0,3.928.44,81.786,81.786,0,0,1,11.919,4.034h.264Z" fill="none" stroke="#deb061" stroke-linecap="round" stroke-linejoin="round" stroke-width="1.3"/>
          <path id="Path_43" data-name="Path 43" d="M376.392,171.5a1.99,1.99,0,0,1,3.946.36,2.188,2.188,0,0,1-.049.44,1.99,1.99,0,0,1-3.9-.8Z" fill="none" stroke="#deb061" stroke-linecap="round" stroke-linejoin="round" stroke-width="1.3"/>
          <path id="Path_44" data-name="Path 44" d="M371.362,217.224a.731.731,0,0,1-.01.147,1.975,1.975,0,0,1-3.946-.147,2.206,2.206,0,0,1,.048-.449,1.98,1.98,0,0,1,3.908.449Z" fill="none" stroke="#deb061" stroke-linecap="round" stroke-linejoin="round" stroke-width="1.3"/>
        </g>
        <g id="Group_8" data-name="Group 8">
          <path id="Path_45" data-name="Path 45" d="M395.336,186.027h-2.864V174.986a14.466,14.466,0,1,1,16.44,0v11.041h-2.856" fill="none" stroke="#deb061" stroke-linecap="round" stroke-linejoin="round" stroke-width="1.3"/>
          <path id="Path_46" data-name="Path 46" d="M367.444,216.775a4.906,4.906,0,0,1-2.778-2.115c-2.406-4.151,3.118-12.142,13.227-20.426l.009-.009a119.57,119.57,0,0,1,14.471-10.04" fill="none" stroke="#deb061" stroke-linecap="round" stroke-linejoin="round" stroke-width="1.3"/>
          <path id="Path_47" data-name="Path 47" d="M431.522,171.371a5.59,5.59,0,0,1,3.928,2.426c2.4,4.151-3.11,12.143-13.205,20.408a120.07,120.07,0,0,1-15.915,10.9c-2.1,1.218-4.21,2.348-6.276,3.392-11.442,5.808-22.007,9-28.692,8.879" fill="none" stroke="#deb061" stroke-linecap="round" stroke-linejoin="round" stroke-width="1.3"/>
          <path id="Path_48" data-name="Path 48" d="M409.067,175.844c7.231-2.914,13.7-4.573,18.5-4.747" fill="none" stroke="#deb061" stroke-linecap="round" stroke-linejoin="round" stroke-width="1.3"/>
          <path id="Path_49" data-name="Path 49" d="M431.629,203.424a65.361,65.361,0,0,0-9.239-9.044" fill="none" stroke="#deb061" stroke-linecap="round" stroke-linejoin="round" stroke-width="1.3"/>
          <path id="Path_50" data-name="Path 50" d="M376.392,171.5c-5.957-.956-10.243-.282-11.726,2.3-2.406,4.162,3.108,12.162,13.227,20.437A119.942,119.942,0,0,0,393.776,205.1c2.106,1.218,4.21,2.348,6.278,3.392,17.113,8.693,32.286,11.528,35.4,6.168,1.12-1.939.495-4.746-1.511-8.011" fill="none" stroke="#deb061" stroke-linecap="round" stroke-linejoin="round" stroke-width="1.3"/>
          <path id="Path_51" data-name="Path 51" d="M392.208,176.331a81.786,81.786,0,0,0-11.919-4.034" fill="none" stroke="#deb061" stroke-linecap="round" stroke-linejoin="round" stroke-width="1.3"/>
          <line id="Line_8" data-name="Line 8" y2="4.892" transform="translate(399.81 141.402)" fill="none" stroke="#deb061" stroke-linecap="round" stroke-linejoin="round" stroke-width="1.3"/>
          <line id="Line_9" data-name="Line 9" x1="1.257" y2="4.737" transform="translate(405.688 142.123)" fill="none" stroke="#deb061" stroke-linecap="round" stroke-linejoin="round" stroke-width="1.3"/>
          <line id="Line_10" data-name="Line 10" x1="2.435" y2="4.249" transform="translate(411.213 144.677)" fill="none" stroke="#deb061" stroke-linecap="round" stroke-linejoin="round" stroke-width="1.3"/>
          <line id="Line_11" data-name="Line 11" x2="2.445" y2="4.24" transform="translate(386.195 145.485)" fill="none" stroke="#deb061" stroke-linecap="round" stroke-linejoin="round" stroke-width="1.3"/>
          <line id="Line_12" data-name="Line 12" x2="1.257" y2="4.727" transform="translate(392.743 142.553)" fill="none" stroke="#deb061" stroke-linecap="round" stroke-linejoin="round" stroke-width="1.3"/>
          <path id="Path_52" data-name="Path 52" d="M394.216,168.964l-2.963,1.159-.808-1.413,2.484-1.978a7.9,7.9,0,0,1-.457-1.707l-3.149-.466v-1.638l3.149-.478a7.859,7.859,0,0,1,.457-1.706l-2.484-1.977.808-1.415,2.963,1.161a7.927,7.927,0,0,1,1.247-1.237l-1.16-2.963,1.414-.819,1.977,2.474a10.006,10.006,0,0,1,1.717-.457l.467-3.138h1.638l.467,3.138a9.042,9.042,0,0,1,1.714.457l1.981-2.474,1.411.819-1.16,2.963a7.323,7.323,0,0,1,1.239,1.237l2.963-1.161.817,1.415-2.485,1.977a7.674,7.674,0,0,1,.449,1.706l3.158.478v1.628l-3.158.476a7.711,7.711,0,0,1-.449,1.707l2.485,1.978-.817,1.413-2.963-1.159" fill="none" stroke="#deb061" stroke-linecap="round" stroke-linejoin="round" stroke-width="1.3"/>
          <path id="Path_53" data-name="Path 53" d="M390.356,177.588h20.681" fill="none" stroke="#deb061" stroke-linecap="round" stroke-linejoin="round" stroke-width="1.3"/>
          <path id="Path_54" data-name="Path 54" d="M390.356,180.6h20.681" fill="none" stroke="#deb061" stroke-linecap="round" stroke-linejoin="round" stroke-width="1.3"/>
          <path id="Path_55" data-name="Path 55" d="M390.356,183.367h20.681" fill="none" stroke="#deb061" stroke-linecap="round" stroke-linejoin="round" stroke-width="1.3"/>
          <path id="Path_56" data-name="Path 56" d="M398.972,190.881h-3.636v-4.854h10.72v4.854h-3.634" fill="none" stroke="#deb061" stroke-linecap="round" stroke-linejoin="round" stroke-width="1.3"/>
          <rect id="Rectangle_21" data-name="Rectangle 21" width="3.45" height="4.22" transform="translate(398.972 190.881)" stroke-width="1.3" stroke="#deb061" stroke-linecap="round" stroke-linejoin="round" fill="none"/>
          <path id="Path_57" data-name="Path 57" d="M376.392,171.5a1.99,1.99,0,0,1,3.946.36,2.188,2.188,0,0,1-.049.44,1.99,1.99,0,0,1-3.9-.8Z" fill="none" stroke="#deb061" stroke-linecap="round" stroke-linejoin="round" stroke-width="1.3"/>
          <path id="Path_58" data-name="Path 58" d="M431.629,203.424a1.985,1.985,0,1,1,2.31,3.225,2.026,2.026,0,0,1-1.1.332,1.983,1.983,0,0,1-1.988-1.988A1.95,1.95,0,0,1,431.629,203.424Z" fill="none" stroke="#deb061" stroke-linecap="round" stroke-linejoin="round" stroke-width="1.3"/>
          <path id="Path_59" data-name="Path 59" d="M367.454,216.775a1.98,1.98,0,0,1,3.908.449.731.731,0,0,1-.01.147,1.975,1.975,0,0,1-3.946-.147A2.206,2.206,0,0,1,367.454,216.775Z" fill="none" stroke="#deb061" stroke-linecap="round" stroke-linejoin="round" stroke-width="1.3"/>
          <path id="Path_60" data-name="Path 60" d="M427.566,171.1a1.983,1.983,0,0,1,3.966.02,2.411,2.411,0,0,1-.019.254,1.982,1.982,0,0,1-3.947-.254Z" fill="none" stroke="#deb061" stroke-linecap="round" stroke-linejoin="round" stroke-width="1.3"/>
        </g>
      </g>
    </g>
  </g>
</svg>
