<svg xmlns="http://www.w3.org/2000/svg" width="74.884" height="73.754" viewBox="0 0 74.884 73.754">
  <g id="Group_43" data-name="Group 43" transform="translate(-620.502 -141.349)">
    <g id="Group_42" data-name="Group 42" transform="translate(620.502 141.349)">
      <g id="Group_28" data-name="Group 28" transform="translate(0 48.738)">
        <path id="Path_76" data-name="Path 76" d="M692.93,217.853H622.816a.617.617,0,0,1-.526-.3,12.458,12.458,0,0,1-1.788-6.446,13.12,13.12,0,0,1,.186-2.173A12.527,12.527,0,0,1,637.7,199.5a9.6,9.6,0,0,1,17.64-1.523,9.606,9.606,0,0,1,12.738.537,16.039,16.039,0,0,1,25.388,19.02A.614.614,0,0,1,692.93,217.853Zm-69.76-1.231h69.388a14.811,14.811,0,0,0-24.028-16.809.62.62,0,0,1-.449.194h0a.618.618,0,0,1-.453-.2,8.378,8.378,0,0,0-12.058-.383.615.615,0,0,1-1-.2,8.371,8.371,0,0,0-15.868,1.271.615.615,0,0,1-.861.412,11.292,11.292,0,0,0-15.941,8.244,11.918,11.918,0,0,0-.168,1.966A11.237,11.237,0,0,0,623.169,216.623Z" transform="translate(-620.502 -192.837)" fill="#deb061"/>
      </g>
      <g id="Group_29" data-name="Group 29" transform="translate(0.177 64.324)">
        <path id="Path_77" data-name="Path 77" d="M673.5,210.534H621.305a.615.615,0,1,1,0-1.231H673.5a.615.615,0,1,1,0,1.231Z" transform="translate(-620.689 -209.303)" fill="#deb061"/>
      </g>
      <g id="Group_30" data-name="Group 30" transform="translate(37.246 19.789)">
        <path id="Path_78" data-name="Path 78" d="M668.063,187.925a35.874,35.874,0,0,1-6.986-.743.614.614,0,0,1-.483-.482c-1.745-8.727-.412-15.59,3.858-19.85,3.05-3.049,7.377-4.6,12.861-4.6a36.157,36.157,0,0,1,6.989.739.615.615,0,0,1,.483.484c1.731,8.728.4,15.591-3.857,19.848C677.876,186.379,673.547,187.925,668.063,187.925Zm-6.341-1.87a34.223,34.223,0,0,0,6.341.64c5.146,0,9.182-1.427,11.994-4.239,3.888-3.889,5.129-10.221,3.6-18.332a34.437,34.437,0,0,0-6.343-.637c-5.147,0-9.18,1.425-11.991,4.235C661.423,171.612,660.181,177.946,661.722,186.055Z" transform="translate(-659.85 -162.255)" fill="#deb061"/>
      </g>
      <g id="Group_31" data-name="Group 31" transform="translate(20.047 27.648)">
        <path id="Path_79" data-name="Path 79" d="M653.838,188.529h0c-3.816,0-6.827-1.08-8.95-3.211-2.966-2.965-3.9-7.726-2.7-13.769a.615.615,0,0,1,.483-.483,24.925,24.925,0,0,1,4.82-.509c3.809,0,6.819,1.076,8.948,3.2,2.969,2.968,3.9,7.733,2.7,13.779a.616.616,0,0,1-.484.484A24.92,24.92,0,0,1,653.838,188.529ZM643.32,172.2c-1,5.426-.16,9.656,2.439,12.253,1.884,1.891,4.6,2.85,8.078,2.851h0a23.179,23.179,0,0,0,4.174-.409c1-5.43.159-9.664-2.441-12.263S648.733,171.2,643.32,172.2Z" transform="translate(-641.68 -170.557)" fill="#deb061"/>
      </g>
      <g id="Group_32" data-name="Group 32" transform="translate(37.979 27.437)">
        <path id="Path_80" data-name="Path 80" d="M661.239,187.626a.615.615,0,0,1-.443-1.041l15.4-16.062a.615.615,0,1,1,.888.851l-15.4,16.063A.612.612,0,0,1,661.239,187.626Z" transform="translate(-660.624 -170.334)" fill="#deb061"/>
      </g>
      <g id="Group_33" data-name="Group 33" transform="translate(36.97 16.557)">
        <path id="Path_81" data-name="Path 81" d="M660.173,195.483a.615.615,0,0,1-.615-.615V159.455a.615.615,0,1,1,1.231,0v35.413A.615.615,0,0,1,660.173,195.483Z" transform="translate(-659.558 -158.84)" fill="#deb061"/>
      </g>
      <g id="Group_34" data-name="Group 34" transform="translate(46.795 24.766)">
        <path id="Path_82" data-name="Path 82" d="M671.271,177.532a.615.615,0,0,1-.612-.565l-.718-8.788a.615.615,0,1,1,1.226-.1l.719,8.789a.614.614,0,0,1-.563.663A.445.445,0,0,1,671.271,177.532Z" transform="translate(-669.938 -167.512)" fill="#deb061"/>
      </g>
      <g id="Group_35" data-name="Group 35" transform="translate(41.623 38.213)">
        <path id="Path_83" data-name="Path 83" d="M665.088,184.444a.615.615,0,0,1-.1-1.223l9.451-1.495a.615.615,0,0,1,.192,1.215l-9.45,1.495A.572.572,0,0,1,665.088,184.444Z" transform="translate(-664.474 -181.719)" fill="#deb061"/>
      </g>
      <g id="Group_36" data-name="Group 36" transform="translate(25.662 32.816)">
        <path id="Path_84" data-name="Path 84" d="M658.855,188.323a.612.612,0,0,1-.444-.189l-10.627-11.076a.615.615,0,1,1,.887-.852L659.3,187.281a.615.615,0,0,1-.444,1.041Z" transform="translate(-647.612 -176.017)" fill="#deb061"/>
      </g>
      <g id="Group_37" data-name="Group 37" transform="translate(24.496 36.018)">
        <path id="Path_85" data-name="Path 85" d="M647,182.116a.616.616,0,0,1-.218-1.192l3.92-1.484a.615.615,0,0,1,.436,1.151l-3.92,1.484A.615.615,0,0,1,647,182.116Z" transform="translate(-646.38 -179.399)" fill="#deb061"/>
      </g>
      <g id="Group_38" data-name="Group 38" transform="translate(32.768 34.338)">
        <path id="Path_86" data-name="Path 86" d="M655.735,184.738h-.041a.615.615,0,0,1-.574-.654l.382-5.883a.615.615,0,0,1,1.228.079l-.382,5.883A.615.615,0,0,1,655.735,184.738Z" transform="translate(-655.12 -177.625)" fill="#deb061"/>
      </g>
      <g id="Group_39" data-name="Group 39" transform="translate(28.697)">
        <path id="Path_87" data-name="Path 87" d="M659.706,159.136a8.894,8.894,0,1,1,8.891-8.889A8.9,8.9,0,0,1,659.706,159.136Zm0-16.557a7.663,7.663,0,1,0,7.66,7.667A7.671,7.671,0,0,0,659.706,142.58Z" transform="translate(-650.818 -141.349)" fill="#deb061"/>
      </g>
      <path id="Path_88" data-name="Path 88" d="M660.511,153.637a1.432,1.432,0,0,0,.815-.477,1.261,1.261,0,0,0,.317-.867,1.138,1.138,0,0,0-.272-.756,1.6,1.6,0,0,0-.86-.5Zm-.962-7.051a1.27,1.27,0,0,0-.614.45,1.2,1.2,0,0,0-.224.709,1.089,1.089,0,0,0,.2.645,1.434,1.434,0,0,0,.634.486Zm0,6.939v-2.773a3.654,3.654,0,0,1-1.894-1.111,2.876,2.876,0,0,1-.6-1.821,2.552,2.552,0,0,1,.682-1.822,2.728,2.728,0,0,1,1.81-.849V144.5h.962v.652a2.8,2.8,0,0,1,1.682.718,2.774,2.774,0,0,1,.8,1.588l-1.681.215a1.337,1.337,0,0,0-.8-1.055v2.579a4.3,4.3,0,0,1,2.177,1.11,2.655,2.655,0,0,1,.579,1.756,2.94,2.94,0,0,1-.728,2.017,3.266,3.266,0,0,1-2.029,1.018v1.233h-.962v-1.215a3.061,3.061,0,0,1-1.848-.848,3.462,3.462,0,0,1-.916-2l1.719-.206a2.3,2.3,0,0,0,.4.915A1.993,1.993,0,0,0,659.549,153.525Z" transform="translate(-622.44 -141.517)" fill="#deb061"/>
      <g id="Group_40" data-name="Group 40" transform="translate(11.634 16.614)">
        <path id="Path_89" data-name="Path 89" d="M635.622,164.566a2.833,2.833,0,1,1,2.839-2.837A2.836,2.836,0,0,1,635.622,164.566Zm0-4.435a1.6,1.6,0,1,0,1.607,1.6A1.6,1.6,0,0,0,635.622,160.132Z" transform="translate(-632.793 -158.901)" fill="#deb061"/>
      </g>
      <g id="Group_41" data-name="Group 41" transform="translate(57.038 7.22)">
        <path id="Path_90" data-name="Path 90" d="M683.588,154.64a2.832,2.832,0,1,1,2.839-2.836A2.836,2.836,0,0,1,683.588,154.64Zm0-4.434a1.6,1.6,0,1,0,1.607,1.6A1.6,1.6,0,0,0,683.588,150.207Z" transform="translate(-680.759 -148.976)" fill="#deb061"/>
      </g>
    </g>
  </g>
</svg>
