<svg xmlns="http://www.w3.org/2000/svg" width="79.11" height="76.91" viewBox="0 0 79.11 76.91">
  <g id="Group_86" data-name="Group 86" transform="translate(-360.502 -271.852)">
    <g id="Group_85" data-name="Group 85">
      <g id="Group_72" data-name="Group 72">
        <path id="Path_138" data-name="Path 138" d="M433.279,324.146H366.843a.65.65,0,0,1-.651-.65V284.59a.65.65,0,0,1,.651-.65h66.436a.65.65,0,0,1,.651.65V323.5A.65.65,0,0,1,433.279,324.146Zm-65.786-1.3h65.136V285.24H367.493Z" fill="#deb061"/>
      </g>
      <g id="Group_73" data-name="Group 73">
        <path id="Path_139" data-name="Path 139" d="M438.962,285.24h-77.81a.65.65,0,0,1-.65-.65v-5.6a.65.65,0,0,1,.65-.65h77.81a.65.65,0,0,1,.65.65v5.6A.65.65,0,0,1,438.962,285.24Zm-77.159-1.3h76.508v-4.3H361.8Z" fill="#deb061"/>
      </g>
      <g id="Group_74" data-name="Group 74">
        <path id="Path_140" data-name="Path 140" d="M417.662,318.18H413a.65.65,0,0,1-.65-.651V293.838a.65.65,0,0,1,.65-.65h4.665a.65.65,0,0,1,.65.65v23.691A.65.65,0,0,1,417.662,318.18Zm-4.015-1.3h3.365V294.488h-3.365Z" fill="#deb061"/>
      </g>
      <g id="Group_75" data-name="Group 75">
        <path id="Path_141" data-name="Path 141" d="M410.026,318.18h-4.664a.65.65,0,0,1-.65-.651V296.77a.65.65,0,0,1,.65-.65h4.664a.65.65,0,0,1,.651.65v20.759A.65.65,0,0,1,410.026,318.18Zm-4.013-1.3h3.363V297.421h-3.363Z" fill="#deb061"/>
      </g>
      <g id="Group_76" data-name="Group 76">
        <path id="Path_142" data-name="Path 142" d="M402.394,318.18H397.73a.65.65,0,0,1-.65-.651v-17.9a.649.649,0,0,1,.65-.65h4.664a.65.65,0,0,1,.651.65v17.9A.65.65,0,0,1,402.394,318.18Zm-4.013-1.3h3.363v-16.6h-3.363Z" fill="#deb061"/>
      </g>
      <g id="Group_77" data-name="Group 77">
        <path id="Path_143" data-name="Path 143" d="M394.76,318.18H390.1a.65.65,0,0,1-.651-.651V303.607a.65.65,0,0,1,.651-.65h4.665a.65.65,0,0,1,.65.65v13.922A.65.65,0,0,1,394.76,318.18Zm-4.015-1.3h3.364V304.258h-3.364Z" fill="#deb061"/>
      </g>
      <g id="Group_78" data-name="Group 78">
        <path id="Path_144" data-name="Path 144" d="M387.124,318.18H382.46a.65.65,0,0,1-.65-.651V307.75a.65.65,0,0,1,.65-.65h4.664a.65.65,0,0,1,.65.65v9.779A.65.65,0,0,1,387.124,318.18Zm-4.014-1.3h3.364V308.4H383.11Z" fill="#deb061"/>
      </g>
      <g id="Group_79" data-name="Group 79">
        <path id="Path_145" data-name="Path 145" d="M420.833,321.067H379.289a.65.65,0,1,1,0-1.3h41.544a.65.65,0,0,1,0,1.3Z" fill="#deb061"/>
      </g>
      <g id="Group_80" data-name="Group 80">
        <path id="Path_146" data-name="Path 146" d="M382.471,304.267a.65.65,0,0,1-.22-1.262c.174-.064,17.553-6.39,25.175-15.264a.65.65,0,1,1,.986.848c-7.847,9.135-24.995,15.378-25.722,15.638A.622.622,0,0,1,382.471,304.267Z" fill="#deb061"/>
      </g>
      <g id="Group_81" data-name="Group 81">
        <path id="Path_147" data-name="Path 147" d="M407.828,292.792a.65.65,0,0,1-.65-.65v-3.214l-3.021.015h0a.65.65,0,0,1,0-1.3l3.674-.019a.652.652,0,0,1,.653.65v3.868A.65.65,0,0,1,407.828,292.792Z" fill="#deb061"/>
      </g>
      <g id="Group_82" data-name="Group 82">
        <path id="Path_148" data-name="Path 148" d="M402.587,279.641h-5.05a.65.65,0,0,1-.65-.651v-3.958a3.175,3.175,0,1,1,6.35,0v3.958A.65.65,0,0,1,402.587,279.641Zm-4.4-1.3h3.749v-3.308a1.875,1.875,0,1,0-3.749,0Z" fill="#deb061"/>
      </g>
      <g id="Group_84" data-name="Group 84">
        <g id="Group_83" data-name="Group 83">
          <path id="Path_149" data-name="Path 149" d="M430.73,348.762a.65.65,0,0,1-.65-.651v-3a4.237,4.237,0,0,0-4.232-4.234H418.8a4.239,4.239,0,0,0-4.235,4.234v3a.65.65,0,1,1-1.3,0v-3a5.542,5.542,0,0,1,5.535-5.535h7.049a5.542,5.542,0,0,1,5.533,5.535v3A.65.65,0,0,1,430.73,348.762Zm-23.123,0a.65.65,0,0,1-.65-.651v-3a4.237,4.237,0,0,0-4.232-4.234h-7.049a4.239,4.239,0,0,0-4.235,4.234v3a.65.65,0,1,1-1.3,0v-3a5.542,5.542,0,0,1,5.535-5.535h7.049a5.542,5.542,0,0,1,5.533,5.535v3A.65.65,0,0,1,407.607,348.762Zm-21.4,0a.65.65,0,0,1-.65-.651v-3a4.238,4.238,0,0,0-4.233-4.234h-7.051a4.237,4.237,0,0,0-4.232,4.234v3a.65.65,0,1,1-1.3,0v-3a5.542,5.542,0,0,1,5.533-5.535h7.051a5.541,5.541,0,0,1,5.533,5.535v3A.65.65,0,0,1,386.208,348.762ZM422.2,338.736a5.229,5.229,0,1,1,5.234-5.223A5.234,5.234,0,0,1,422.2,338.736Zm-3.919-4.891a3.934,3.934,0,0,0,7.852-.332,3.8,3.8,0,0,0-.025-.442,5.16,5.16,0,0,1-3.211-.774A5.2,5.2,0,0,1,418.28,333.845Zm.107-1.3a3.909,3.909,0,0,0,3.878-1.51.647.647,0,0,1,.438-.256.641.641,0,0,1,.489.139,4.108,4.108,0,0,0,2.542.875,3.933,3.933,0,0,0-7.347.752Zm-19.311,6.193a5.229,5.229,0,1,1,5.038-6.64.566.566,0,0,1,.034.115c0,.014.006.027.008.042a5.224,5.224,0,0,1-5.08,6.483Zm-3.919-4.892a3.933,3.933,0,0,0,7.852-.331,3.785,3.785,0,0,0-.025-.441,5.181,5.181,0,0,1-3.2-.776A5.238,5.238,0,0,1,395.157,333.844Zm.108-1.3a3.923,3.923,0,0,0,3.887-1.509.649.649,0,0,1,.928-.117,3.913,3.913,0,0,0,2.532.875,3.933,3.933,0,0,0-7.347.751Zm-17.588,6.194a5.229,5.229,0,1,1,5.233-5.223A5.234,5.234,0,0,1,377.677,338.736Zm-3.919-4.892a3.933,3.933,0,0,0,7.851-.331,3.8,3.8,0,0,0-.024-.442,5.159,5.159,0,0,1-3.211-.774A5.175,5.175,0,0,1,373.758,333.844Zm.106-1.3a3.89,3.89,0,0,0,3.878-1.51.652.652,0,0,1,.439-.256.642.642,0,0,1,.489.139,4.1,4.1,0,0,0,2.542.875,3.933,3.933,0,0,0-7.348.752Z" fill="#deb061"/>
        </g>
      </g>
    </g>
  </g>
</svg>
